PathFileType	4	(X/Y/Z)	Run_500 02
DataRate	CameraRate	NumFrames	NumMarkers	Units	OrigDataRate	OrigDataStartFrame	OrigNumFrames
120	120	4	42	mm	120	55	128
Frame#	Time	LASI			RASI			LPSI			RPSI			RTH1			RTH2			RTH3			LTH1			LTH2			LTH3			RTB1			RTB2			RTB3			LTB1			LTB2			LTB3			RCAL			RTOE			RMT5			LCAL			LTOE			LMT5			LACR			RACR			CLAV			C7			RUA1			RUA2			RUA3			RLEL			RMEL			LUA1			LUA2			LUA3			LLEL			LMEL			RFAsuperior			RFAradius			RFAulna			LFAsuperior			LFAradius			LFAulna			
		X1	Y1	Z1	X2	Y2	Z2	X3	Y3	Z3	X4	Y4	Z4	X5	Y5	Z5	X6	Y6	Z6	X7	Y7	Z7	X8	Y8	Z8	X9	Y9	Z9	X10	Y10	Z10	X11	Y11	Z11	X12	Y12	Z12	X13	Y13	Z13	X14	Y14	Z14	X15	Y15	Z15	X16	Y16	Z16	X17	Y17	Z17	X18	Y18	Z18	X19	Y19	Z19	X20	Y20	Z20	X21	Y21	Z21	X22	Y22	Z22	X23	Y23	Z23	X24	Y24	Z24	X25	Y25	Z25	X26	Y26	Z26	X27	Y27	Z27	X28	Y28	Z28	X29	Y29	Z29	X30	Y30	Z30	X31	Y31	Z31	X32	Y32	Z32	X33	Y33	Z33	X34	Y34	Z34	X35	Y35	Z35	X36	Y36	Z36	X37	Y37	Z37	X38	Y38	Z38	X39	Y39	Z39	X40	Y40	Z40	X41	Y41	Z41	X42	Y42	Z42	

55	0.55	766.434644	967.71928	-518.6463670000001	791.079278	977.54075	-261.580133	608.679349	1004.715656	-407.970134	619.1294799999999	1004.090798	-324.422038	805.487859	811.2601079999999	-217.136253	923.032633	739.7914469999999	-246.992929	912.104948	610.2374160000001	-221.670927	699.143523	825.727558	-551.094546	738.615664	705.628289	-540.436105	650.028561	576.818099	-526.330725	839.028626	485.744222	-285.985743	775.107835	529.235414	-232.861565	664.882479	513.109358	-297.607249	619.3288680000001	337.949574	-446.846365	523.837517	269.674711	-491.056502	491.348954	198.519804	-413.854649	527.8864589999999	627.025182	-298.875511	511.103492	407.533097	-293.623004	495.035392	444.307383	-205.502434	320.798906	140.172128	-416.085411	525.761914	71.162132	-398.636865	490.934318	57.9173	-484.587406	781.082079	1413.781711	-588.185325	767.650345	1449.109122	-219.923547	876.374924	1387.889854	-365.925158	742.4403	1476.193929	-410.44618	710.6103409999999	1371.44024	-145.402818	704.586717	1301.653664	-132.243491	603.507006	1322.858769	-115.558802	599.316118	1242.681145	-53.968501	554.948301	1224.55261	-127.264248	767.077041	1336.68409	-643.386652	729.866398	1250.982448	-631.256919	774.564417	1253.755653	-690.33573	791.699988	1156.372624	-745.97699	789.286477	1092.526597	-684.008266	660.854801	1180.932724	-56.461953	772.900294	1062.823651	-112.730728	715.253617	1032.705814	-87.83120599999999	851.979325	1198.144339	-728.40137	957.210482	1279.875926	-613.449973	995.5518980000001	1228.066995	-633.705928	
56	0.558333	768.93115	967.254562	-520.298099	793.547134	984.23489	-264.747822	612.212946	1008.620011	-410.644479	621.406689	1009.705507	-326.040572	813.154626	821.752737	-217.398316	932.866981	755.800875	-246.854858	929.474048	625.605427	-223.562525	696.336202	828.39013	-550.934652	727.402434	707.814688	-540.317505	627.9131180000001	584.605785	-524.976266	866.943138	489.97474	-287.196701	797.866432	525.643953	-234.120773	688.866213	495.89308	-298.733635	587.160859	345.512221	-448.570796	489.820483	280.919286	-493.690899	457.177369	208.049634	-417.003444	538.0963379999999	591.090098	-298.832337	553.218602	371.305579	-293.818136	532.102683	405.728141	-205.258152	286.930729	153.569651	-420.079937	486.465129	71.81080900000001	-399.688373	449.006179	58.244961	-484.430558	786.961572	1420.281503	-586.251523	762.751099	1455.074583	-220.284109	875.465297	1394.399895	-361.623201	743.264328	1481.43266	-410.006153	703.212213	1381.071652	-145.906706	696.109088	1312.204627	-130.752651	594.306428	1334.242138	-118.445729	587.378022	1255.693488	-55.676835	544.973173	1236.340144	-130.005461	775.080452	1342.400493	-641.139407	735.965967	1257.482495	-629.949296	784.746986	1258.676661	-686.40271	802.75227	1160.078964	-739.356056	794.893508	1097.041493	-676.126266	649.217802	1194.801832	-55.048012	763.182386	1076.409031	-105.956209	704.78923	1045.927475	-83.612346	862.28032	1201.593528	-718.833901	961.610594	1283.984006	-599.991617	1000.570261	1231.544259	-616.114464	
57	0.566667	772.2031940000001	967.923619	-521.445971	795.9556700000001	990.766587	-268.355568	616.417581	1012.902093	-413.474315	624.069565	1015.906346	-327.30418	820.802561	832.178836	-218.026957	941.560996	770.994358	-246.712571	944.213086	640.313067	-225.263318	694.584393	831.617113	-550.891079	717.129272	711.0141640000001	-540.265092	607.484836	594.898175	-523.663269	893.615735	493.999464	-288.762282	820.187799	520.547162	-235.448272	713.634735	477.291658	-299.443109	557.112619	355.936552	-450.241906	458.400326	294.704874	-496.773799	426.232218	219.332795	-421.237651	552.382232	551.915298	-299.570802	598.922277	336.42023	-294.189581	573.900558	368.041113	-205.235729	256.541707	169.473188	-424.484597	448.269859	72.653111	-400.814811	408.452662	58.926528	-484.716961	792.855742	1427.193335	-583.883313	758.343471	1460.838644	-220.531586	874.2416030000001	1401.360026	-357.540102	743.935771	1486.59383	-409.263814	696.783266	1390.482153	-146.492175	688.790804	1322.593064	-129.342014	586.260689	1345.547715	-121.187967	576.729705	1268.657238	-57.689751	535.765949	1248.011369	-132.691378	782.9502179999999	1348.980253	-638.912452	741.446321	1265.081084	-629.724834	794.389515	1264.752733	-682.986451	812.603893	1165.265933	-733.820647	798.399096	1102.573825	-670.348867	638.7597940000001	1208.754757	-54.16272	754.065227	1089.916814	-99.93763	695.256136	1059.19242	-79.554334	871.402145	1206.041367	-710.1793	964.944955	1287.220434	-586.279576	1004.077824	1234.44898	-599.247648	
58	0.575	776.101806	970.122562	-521.94417	798.1104350000001	997.1945459999999	-272.156528	620.878556	1017.401087	-416.024489	627.05939	1022.23667	-328.339006	828.265039	842.611904	-219.013757	948.917454	785.13669	-246.557589	956.015852	653.8637199999999	-226.78568	692.865642	835.291651	-551.0102889999999	707.522136	714.986584	-540.386572	589.375017	606.946062	-522.612723	918.693207	497.839939	-290.364053	842.13432	514.133078	-236.777981	740.366857	457.556565	-299.69417	530.2162520000001	368.643208	-452.269992	430.21043	310.261905	-500.126719	399.286079	231.717633	-426.353821	571.482557	510.294738	-301.195678	648.04756	303.528711	-294.516212	619.73089	332.161188	-205.40045	230.498869	188.000762	-428.786633	411.701898	73.94484799999999	-402.469953	369.514868	60.261139	-485.562415	798.580575	1434.222497	-581.102112	754.545482	1466.233223	-220.47394	872.806053	1408.136233	-353.677255	744.538088	1491.494592	-408.179694	691.309471	1399.349172	-146.981966	682.470788	1332.262151	-128.166719	579.384765	1356.414906	-123.644356	567.273182	1281.167408	-59.81573	527.479799	1259.328545	-135.339354	790.452279	1356.066177	-636.67295	746.580406	1273.280299	-630.339158	803.274822	1271.550069	-680.053125	821.271192	1171.420064	-729.383191	800.335554	1108.890897	-666.663604	629.217758	1222.183858	-53.509478	745.604948	1102.864943	-94.414762	686.5717100000001	1071.948446	-75.58059	879.332779	1211.023183	-702.524492	967.09234	1289.662662	-572.785741	1005.983477	1236.687156	-583.234842	
